<?xml version="1.0" encoding="UTF-8"?>
<svg id="Layer_1" data-name="Layer 1" xmlns="http://www.w3.org/2000/svg" viewBox="0 0 10501.94 4603.59">
  <defs>
    <style>
      .cls-1, .cls-2 {
        fill: #fff;
      }

      .cls-3 {
        letter-spacing: 0em;
      }

      .cls-3, .cls-4 {
        font-family: Poppins-Regular, Poppins;
      }

      .cls-5 {
        font-family: Poppins-Bold, Poppins;
        font-weight: 700;
      }

      .cls-2 {
        font-size: 656.07px;
      }
    </style>
  </defs>
  <text class="cls-2" transform="translate(6.98 4206.01)"><tspan class="cls-4" x="0" y="0">the complete </tspan><tspan class="cls-5" x="4566.85" y="0">graphics </tspan><tspan class="cls-3" x="7721.82" y="0">solution</tspan></text>
  <g>
    <path class="cls-1" d="m10501.94,2481.94h-502.53c0-13.89,0-25.25,0-36.6,0-283.08.67-566.17-.69-849.24-.21-44.88-4.13-91.16-15.69-134.29-33.9-126.52-118.86-199.42-249.18-214.69-149.24-17.48-294.81,37.41-343.5,210.99-13.1,46.7-17.2,97.2-17.48,146-1.59,278.14-.77,556.3-.77,834.45,0,12.71,0,25.42,0,40.39h-503.08V306.58h501.82v741.01c5.76,0,8.54.77,9.25-.11,127.64-158.65,298.2-223,496.75-224.26,147.51-.94,282.96,36.66,398.4,132.31,117.88,97.67,179.2,227.31,208.46,374.32,7.26,36.51,12.22,73.48,18.23,110.24v1041.87Z"/>
    <path class="cls-1" d="m3234.65,1510.67c-51.05,120.84-99.3,234.87-147.4,348.96-83.72,198.59-167.59,397.13-250.6,596.02-7.93,19.01-17.39,26.26-38.74,26.1-142.23-1.07-284.47-1-426.7-.04-20.1.14-29.19-6.29-36.87-24.56-222.82-529.78-446.26-1059.3-669.52-1588.89-3.32-7.88-5.75-16.14-9.34-26.35,11.56-.52,20.3-1.26,29.03-1.26,167.92-.07,335.84.48,503.75-.66,23.37-.16,31.99,8.88,39.39,29,114.15,310.22,229.02,620.17,343.77,930.16,3.69,9.96,7.94,19.71,14.21,35.2,36.36-98.28,70.6-190.94,104.91-283.57,84.74-228.79,169.81-457.46,253.78-686.54,7.41-20.21,17.14-26.38,38.16-26.28,167.91.84,335.84.88,503.75-.03,22.02-.12,32.39,5.9,40.31,27.45,115.39,313.96,231.85,627.52,348.08,941.17,2.72,7.35,5.6,14.65,10.37,27.11,5.92-14.57,10.44-24.86,14.33-35.39,114.76-309.99,229.8-619.88,343.51-930.26,8.82-24.07,20.52-30.26,44.6-30.11,164.95.99,329.91,1.22,494.86-.2,26.27-.23,37.65,7.9,46.52,32.06,113.96,310.28,228.96,620.19,343.73,930.18,3.32,8.96,7,17.78,13.21,33.49,11.29-29.42,20.43-52.5,29.03-75.77,109.22-295.26,218.65-590.44,326.96-886.04,8.95-24.42,20.59-32,46.57-31.73,144.2,1.45,288.42.7,432.63.7,70.05,0,140.1,0,210.14,0,10.63,0,21.27,0,35.89,0v-399.24h504.96v399.06h326.79v416.86h-324.5c-.68,13.76-1.63,24.18-1.63,34.61-.09,204.21-.07,408.42-.04,612.63,0,10.85.15,21.71.61,32.55,2.87,68.34,39.66,108.79,108.12,112.81,61.05,3.58,122.37,2.61,183.57,3.58,11.73.18,23.46.03,37.53.03v423.4c-2.16,1.32-3.79,3.19-5.4,3.17-152.66-1.63-306.14,13.73-457.19-21.71-198.18-46.49-324.63-179.05-356.84-379.39-9.97-61.99-14.74-125.39-15.34-188.21-1.9-198.27-.7-396.58-.71-594.87v-37.5h-197.74v-283.08c-1.99-.65-3.97-1.3-5.96-1.95-4.33,9.03-9.04,17.89-12.92,27.1-196.19,465.18-392.19,930.43-588.86,1395.41-8.36,19.76-8.91,35.41.17,55.4,116.89,257.19,232.78,514.84,348.9,772.39,4.74,10.52,9.23,21.15,15.42,35.36h-30.37c-163.97,0-327.94-.44-491.9.52-22.17.13-32.62-6.69-41.23-27.27-101.83-243.3-204.63-486.19-307.33-729.12-136.41-322.67-272.96-645.29-409.47-967.92-2.66-6.3-5.6-12.48-10.25-22.81-5.66,12.27-10.23,21.48-14.22,30.93-128.23,303.72-256.64,607.36-384.05,911.43-8.7,20.77-19.21,27.11-41.19,26.95-140.25-1.03-280.53-1.26-420.77.18-24.24.25-33.81-8.34-42.6-29.33-126.2-301.38-253.28-602.38-380.22-903.44-4.49-10.65-9.63-21.03-17.66-38.46Z"/>
    <path class="cls-1" d="m1815.05,729.16h-643.99c-4.3-21.45-7.1-41.83-12.53-61.49-28.61-103.69-117.39-179-227.73-185.66-50.33-3.04-104-1.91-151.7,12.28-141.92,42.22-189.08,226.54-90.02,336.92,40.38,44.99,90.42,77.61,145.82,98.78,120.41,46.03,242.23,88.44,363.82,131.33,115.34,40.68,229.68,83.36,334.86,147.06,149.55,90.57,258.61,212.55,296.34,387.71,73.69,342.17-95.61,670.88-418.22,814.75-142.85,63.7-293.22,89.32-448.84,89.91-199.01.75-391.16-30.44-568.94-124.44C153.18,2249.01,23.08,2048.04.35,1777.32c-.73-8.72-.09-17.56-.09-29.18,8.89-.85,17.3-2.36,25.72-2.37,193.58-.13,387.16.1,580.73-.44,18.47-.05,28.3,3.23,31.69,24.08,27.25,167.52,128.68,255.09,298.41,252.35,49.31-.8,101.34-8.47,147.03-26.15,155.39-60.13,189.02-256.24,60.73-362.81-49.73-41.31-110.23-73.91-170.97-96.91-133.36-50.5-270.44-91.11-405.18-138.09-125.26-43.67-245.45-97.96-348.44-184.1-126.81-106.06-194.03-242.38-209.62-406.22-13.47-141.49,3.16-277.68,68.51-405.02C168.17,228.45,316.47,124.52,496.95,62,669.55,2.2,847.91-8.85,1028.6,5.83c147.98,12.03,289.83,46.76,420.22,119.84,207.98,116.56,326.09,294.4,358.22,529.82,3.18,23.32,5.12,46.82,8,73.67Z"/>
    <path class="cls-1" d="m8745.28,1434.36c-107.91,0-214.48,0-321.04,0-62.22,0-124.45-.68-186.64.42-18.03.32-27.78-3.94-35.2-21.82-45.22-109-128.33-163.88-245.96-165.56-112.95-1.61-197.01,47.98-251.45,146.76-30.42,55.19-46.03,115.32-51.5,177.46-9.83,111.76-7.72,222.7,38.45,328.04,63.31,144.44,207.08,208.81,357.01,160.06,75.87-24.67,122.96-79.15,153.27-150.17,6.1-14.29,10.91-24.82,30.58-24.71,166.89.9,333.79.54,500.69.64,3.83,0,7.66,1.06,15.47,2.2-8.36,29.14-15.16,57.6-24.65,85.15-103.48,300.38-313.15,474.04-627.28,521.21-166.31,24.97-328.94,8.6-485.02-54.83-195.54-79.48-335.11-218.2-410.03-414.87-95.48-250.62-95.71-504.27,10.89-751.44,108.46-251.49,308.65-393.03,575.02-441.05,164.59-29.67,328.88-21.24,487.14,36.89,253.17,92.99,400.45,279.82,466.43,536.21,1.95,7.58,3.36,15.3,4.92,22.97.18.9-.3,1.93-1.1,6.44Z"/>
  </g>
</svg>