<?xml version="1.0" encoding="UTF-8"?>
<svg id="Layer_1" data-name="Layer 1" xmlns="http://www.w3.org/2000/svg" xmlns:xlink="http://www.w3.org/1999/xlink" viewBox="0 0 240.94 155.91">
  <defs>
    <style>
      .cls-1 {
        font-family: Poppins-Bold, Poppins;
        font-size: 20px;
        font-weight: 700;
      }

      .cls-1, .cls-2, .cls-3, .cls-4 {
        fill: #fff;
      }

      .cls-5 {
        fill: none;
      }

      .cls-6 {
        clip-path: url(#clippath-1);
      }

      .cls-7 {
        clip-path: url(#clippath-2);
      }

      .cls-3 {
        font-size: 8px;
      }

      .cls-3, .cls-4 {
        font-family: Poppins-Light, Poppins;
        font-weight: 300;
      }

      .cls-8 {
        clip-path: url(#clippath);
      }

      .cls-4 {
        font-size: 9.34px;
      }
    </style>
    <clipPath id="clippath">
      <rect class="cls-5" x="-8.5" y="-209.61" width="257.95" height="172.91"/>
    </clipPath>
    <clipPath id="clippath-1">
      <rect class="cls-5" x="-8.5" y="194.09" width="257.95" height="172.91"/>
    </clipPath>
    <clipPath id="clippath-2">
      <rect class="cls-5" x="-8.5" y="-8.5" width="257.95" height="172.91"/>
    </clipPath>
    <image id="image" width="2400" height="3000" xlink:href="../Pictures/Swytch/Swytch/Gradient/All Colour Formats/4-5 aspect/Artboard 6gradient.jpg"/>
  </defs>
  <g class="cls-8">
    <use transform="translate(-159.84 -306.14) scale(.17)" xlink:href="#image"/>
  </g>
  <g class="cls-6">
    <use transform="translate(-159.84 97.56) scale(.17)" xlink:href="#image"/>
  </g>
  <g class="cls-7">
    <use transform="translate(-159.84 -105.03) scale(.17)" xlink:href="#image"/>
  </g>
  <text class="cls-1" transform="translate(12.35 35.39)"><tspan x="0" y="0">Steve Larter</tspan></text>
  <text class="cls-4" transform="translate(13.19 46.07)"><tspan x="0" y="0">Account Director</tspan></text>
  <text class="cls-3" transform="translate(13.19 125.54)"><tspan x="0" y="0">07545 644 966</tspan><tspan x="0" y="9.6">steve@swytch.graphics</tspan><tspan x="0" y="19.2">121 Parker Drive, Leicester, LE4 0JP</tspan></text>
  <g>
    <path class="cls-2" d="M189.52,56.23c.52,0,.94.42.94.94s-.42.94-.94.94-.94-.42-.94-.94.42-.94.94-.94Z"/>
    <path class="cls-2" d="M194.23,56.23v1.88s-1.23-.59-1.88-.07c0,0-.03-1.81,1.88-1.81Z"/>
    <rect class="cls-2" x="194.23" y="56.23" width="1.88" height="1.88"/>
    <rect class="cls-2" x="196.11" y="56.23" width="1.88" height="1.88"/>
    <rect class="cls-2" x="197.99" y="56.23" width="1.88" height="1.88"/>
    <rect class="cls-2" x="199.87" y="56.23" width="1.88" height="1.88"/>
    <path class="cls-2" d="M203.64,58.11h-1.88v-1.88h0s.46,0,.46,0c.79,0,1.42.84,1.42,1.88Z"/>
    <path class="cls-2" d="M207.4,56.23v1.88s-1.23-.59-1.88-.07c0,0-.03-1.81,1.88-1.81Z"/>
    <path class="cls-2" d="M207.4,58.11v-1.88s1.23.59,1.88.07c0,0,.03,1.81-1.88,1.81Z"/>
    <path class="cls-2" d="M196.11,58.11h1.88s-.59,1.23-.07,1.88c0,0-1.81.03-1.81-1.88Z"/>
    <path class="cls-2" d="M201.76,58.11h1.88s-.59,1.23-.07,1.88c0,0-1.81.03-1.81-1.88Z"/>
    <path class="cls-2" d="M190.46,59.99v1.88s-1.23-.59-1.88-.07c0,0-.03-1.81,1.88-1.81Z"/>
    <rect class="cls-2" x="190.46" y="59.99" width="1.88" height="1.88"/>
    <path class="cls-2" d="M192.34,61.87v-1.88s1.23.59,1.88.07c0,0,.03,1.81-1.88,1.81Z"/>
    <path class="cls-2" d="M198.93,59.99c.52,0,.94.42.94.94s-.42.94-.94.94-.94-.42-.94-.94.42-.94.94-.94Z"/>
    <path class="cls-2" d="M207.4,61.87h-1.88s.59-1.23.07-1.88c0,0,1.81-.03,1.81,1.88Z"/>
    <path class="cls-2" d="M213.05,61.87h-1.88s.59-1.23.07-1.88c0,0,1.81-.03,1.81,1.88Z"/>
    <path class="cls-2" d="M197.05,61.87c.52,0,.94.42.94.94s-.42.94-.94.94-.94-.42-.94-.94.42-.94.94-.94Z"/>
    <path class="cls-2" d="M203.64,61.87v1.88h-1.88v-.46c0-.79.84-1.42,1.88-1.42Z"/>
    <rect class="cls-2" x="203.64" y="61.87" width="1.88" height="1.88"/>
    <rect class="cls-2" x="205.52" y="61.87" width="1.88" height="1.88"/>
    <path class="cls-2" d="M207.4,63.76v-1.88s1.23.59,1.88.07c0,0,.03,1.81-1.88,1.81Z"/>
    <path class="cls-2" d="M211.17,61.87h1.88s-.59,1.23-.07,1.88c0,0-1.81.03-1.81-1.88Z"/>
    <path class="cls-2" d="M191.4,63.76c.52,0,.94.42.94.94s-.42.94-.94.94-.94-.42-.94-.94.42-.94.94-.94Z"/>
    <path class="cls-2" d="M196.11,65.64h-1.88s.59-1.23.07-1.88c0,0,1.81-.03,1.81,1.88Z"/>
    <path class="cls-2" d="M201.76,63.76h1.88v1.88h0s-.46,0-.46,0c-.79,0-1.42-.84-1.42-1.88Z"/>
    <rect class="cls-2" x="203.64" y="63.76" width="1.88" height="1.88"/>
    <path class="cls-2" d="M205.52,65.64v-1.88h1.88v.46c0,.79-.84,1.42-1.88,1.42Z"/>
    <path class="cls-2" d="M190.46,67.52h-1.88s.59-1.23.07-1.88c0,0,1.81-.03,1.81,1.88Z"/>
    <path class="cls-2" d="M194.23,65.64v1.88h-1.88v-.46c0-.79.84-1.42,1.88-1.42Z"/>
    <rect class="cls-2" x="194.23" y="65.64" width="1.88" height="1.88"/>
    <rect class="cls-2" x="196.11" y="65.64" width="1.88" height="1.88"/>
    <rect class="cls-2" x="197.99" y="65.64" width="1.88" height="1.88"/>
    <path class="cls-2" d="M201.76,67.52h-1.88v-1.88h0s.46,0,.46,0c.79,0,1.42.84,1.42,1.88Z"/>
    <rect class="cls-2" x="203.64" y="65.64" width="1.88" height="1.88"/>
    <path class="cls-2" d="M213.05,67.52h-1.88s.59-1.23.07-1.88c0,0,1.81-.03,1.81,1.88Z"/>
    <path class="cls-2" d="M188.58,67.52h1.88s-.59,1.23-.07,1.88c0,0-1.81.03-1.81-1.88Z"/>
    <path class="cls-2" d="M192.34,67.52h1.88s-.59,1.23-.07,1.88c0,0-1.81.03-1.81-1.88Z"/>
    <rect class="cls-2" x="196.11" y="67.52" width="1.88" height="1.88"/>
    <path class="cls-2" d="M199.87,67.52h1.88s-.59,1.23-.07,1.88c0,0-1.81.03-1.81-1.88Z"/>
    <path class="cls-2" d="M203.64,67.52h1.88s-.59,1.23-.07,1.88c0,0-1.81.03-1.81-1.88Z"/>
    <path class="cls-2" d="M208.35,67.52c.52,0,.94.42.94.94s-.42.94-.94.94-.94-.42-.94-.94.42-.94.94-.94Z"/>
    <rect class="cls-2" x="211.17" y="67.52" width="1.88" height="1.88"/>
    <path class="cls-2" d="M196.11,69.4h1.88v1.88h0s-.46,0-.46,0c-.79,0-1.42-.84-1.42-1.88Z"/>
    <path class="cls-2" d="M199.87,71.29h-1.88v-1.88h0s.46,0,.46,0c.79,0,1.42.84,1.42,1.88Z"/>
    <path class="cls-2" d="M211.17,69.4v1.88h-1.88v-.46c0-.79.84-1.42,1.88-1.42Z"/>
    <rect class="cls-2" x="211.17" y="69.4" width="1.88" height="1.88"/>
    <path class="cls-2" d="M174.46,71.29c.52,0,.94.42.94.94s-.42.94-.94.94-.94-.42-.94-.94.42-.94.94-.94Z"/>
    <path class="cls-2" d="M178.22,71.29c.52,0,.94.42.94.94s-.42.94-.94.94-.94-.42-.94-.94.42-.94.94-.94Z"/>
    <path class="cls-2" d="M186.7,71.29v1.88s-1.23-.59-1.88-.07c0,0-.03-1.81,1.88-1.81Z"/>
    <path class="cls-2" d="M186.7,73.17v-1.88s1.23.59,1.88.07c0,0,.03,1.81-1.88,1.81Z"/>
    <path class="cls-2" d="M191.4,71.29c.52,0,.94.42.94.94s-.42.94-.94.94-.94-.42-.94-.94.42-.94.94-.94Z"/>
    <path class="cls-2" d="M197.99,71.29h1.88s-.59,1.23-.07,1.88c0,0-1.81.03-1.81-1.88Z"/>
    <path class="cls-2" d="M203.64,71.29v1.88s-1.23-.59-1.88-.07c0,0-.03-1.81,1.88-1.81Z"/>
    <path class="cls-2" d="M205.52,73.17h-1.88v-1.88h0s.46,0,.46,0c.79,0,1.42.84,1.42,1.88Z"/>
    <rect class="cls-2" x="209.29" y="71.29" width="1.88" height="1.88"/>
    <rect class="cls-2" x="211.17" y="71.29" width="1.88" height="1.88"/>
    <path class="cls-2" d="M217.76,71.29c.52,0,.94.42.94.94s-.42.94-.94.94-.94-.42-.94-.94.42-.94.94-.94Z"/>
    <path class="cls-2" d="M223.41,71.29c.52,0,.94.42.94.94s-.42.94-.94.94-.94-.42-.94-.94.42-.94.94-.94Z"/>
    <path class="cls-2" d="M228.11,73.17h-1.88s.59-1.23.07-1.88c0,0,1.81-.03,1.81,1.88Z"/>
    <path class="cls-2" d="M181.05,73.17v1.88h-1.88v-.46c0-.79.84-1.42,1.88-1.42Z"/>
    <rect class="cls-2" x="181.05" y="73.17" width="1.88" height="1.88"/>
    <path class="cls-2" d="M182.93,75.05v-1.88s1.23.59,1.88.07c0,0,.03,1.81-1.88,1.81Z"/>
    <path class="cls-2" d="M190.46,75.05h-1.88s.59-1.23.07-1.88c0,0,1.81-.03,1.81,1.88Z"/>
    <path class="cls-2" d="M194.23,73.17v1.88h-1.88v-.46c0-.79.84-1.42,1.88-1.42Z"/>
    <rect class="cls-2" x="194.23" y="73.17" width="1.88" height="1.88"/>
    <path class="cls-2" d="M196.11,75.05v-1.88s1.23.59,1.88.07c0,0,.03,1.81-1.88,1.81Z"/>
    <rect class="cls-2" x="203.64" y="73.17" width="1.88" height="1.88"/>
    <path class="cls-2" d="M207.4,75.05h-1.88v-1.88h0s.46,0,.46,0c.79,0,1.42.84,1.42,1.88Z"/>
    <rect class="cls-2" x="209.29" y="73.17" width="1.88" height="1.88"/>
    <rect class="cls-2" x="211.17" y="73.17" width="1.88" height="1.88"/>
    <path class="cls-2" d="M215.88,73.17c.52,0,.94.42.94.94s-.42.94-.94.94-.94-.42-.94-.94.42-.94.94-.94Z"/>
    <path class="cls-2" d="M226.23,73.17v1.88s-1.23-.59-1.88-.07c0,0-.03-1.81,1.88-1.81Z"/>
    <rect class="cls-2" x="226.23" y="73.17" width="1.88" height="1.88"/>
    <path class="cls-2" d="M175.4,75.05v1.88h-1.88v-.46c0-.79.84-1.42,1.88-1.42Z"/>
    <path class="cls-2" d="M175.4,76.93v-1.88s1.23.59,1.88.07c0,0,.03,1.81-1.88,1.81Z"/>
    <path class="cls-2" d="M179.17,75.05h1.88v1.88h0s-.46,0-.46,0c-.79,0-1.42-.84-1.42-1.88Z"/>
    <path class="cls-2" d="M181.05,76.93v-1.88h1.88v.46c0,.79-.84,1.42-1.88,1.42Z"/>
    <path class="cls-2" d="M185.75,75.05c.52,0,.94.42.94.94s-.42.94-.94.94-.94-.42-.94-.94.42-.94.94-.94Z"/>
    <path class="cls-2" d="M188.58,75.05h1.88s-.59,1.23-.07,1.88c0,0-1.81.03-1.81-1.88Z"/>
    <path class="cls-2" d="M192.34,75.05h1.88s-.59,1.23-.07,1.88c0,0-1.81.03-1.81-1.88Z"/>
    <path class="cls-2" d="M199.87,75.05v1.88s-1.23-.59-1.88-.07c0,0-.03-1.81,1.88-1.81Z"/>
    <path class="cls-2" d="M201.76,76.93h-1.88v-1.88h0s.46,0,.46,0c.79,0,1.42.84,1.42,1.88Z"/>
    <rect class="cls-2" x="203.64" y="75.05" width="1.88" height="1.88"/>
    <rect class="cls-2" x="205.52" y="75.05" width="1.88" height="1.88"/>
    <rect class="cls-2" x="207.4" y="75.05" width="1.88" height="1.88"/>
    <rect class="cls-2" x="209.29" y="75.05" width="1.88" height="1.88"/>
    <rect class="cls-2" x="211.17" y="75.05" width="1.88" height="1.88"/>
    <path class="cls-2" d="M220.58,75.05v1.88s-1.23-.59-1.88-.07c0,0-.03-1.81,1.88-1.81Z"/>
    <rect class="cls-2" x="220.58" y="75.05" width="1.88" height="1.88"/>
    <path class="cls-2" d="M222.47,76.93v-1.88s1.23.59,1.88.07c0,0,.03,1.81-1.88,1.81Z"/>
    <path class="cls-2" d="M226.23,75.05h1.88s-.59,1.23-.07,1.88c0,0-1.81.03-1.81-1.88Z"/>
    <path class="cls-2" d="M173.52,76.93h1.88s-.59,1.23-.07,1.88c0,0-1.81.03-1.81-1.88Z"/>
    <path class="cls-2" d="M179.17,78.82h-1.88s.59-1.23.07-1.88c0,0,1.81-.03,1.81,1.88Z"/>
    <path class="cls-2" d="M188.58,78.82h-1.88s.59-1.23.07-1.88c0,0,1.81-.03,1.81,1.88Z"/>
    <rect class="cls-2" x="199.87" y="76.93" width="1.88" height="1.88"/>
    <rect class="cls-2" x="201.76" y="76.93" width="1.88" height="1.88"/>
    <path class="cls-2" d="M203.64,78.82v-1.88h1.88v.46c0,.79-.84,1.42-1.88,1.42Z"/>
    <path class="cls-2" d="M209.29,76.93h1.88v1.88h0s-.46,0-.46,0c-.79,0-1.42-.84-1.42-1.88Z"/>
    <rect class="cls-2" x="211.17" y="76.93" width="1.88" height="1.88"/>
    <path class="cls-2" d="M216.82,76.93v1.88h-1.88v-.46c0-.79.84-1.42,1.88-1.42Z"/>
    <path class="cls-2" d="M218.7,78.82h-1.88v-1.88h0s.46,0,.46,0c.79,0,1.42.84,1.42,1.88Z"/>
    <path class="cls-2" d="M177.28,78.82v1.88s-1.23-.59-1.88-.07c0,0-.03-1.81,1.88-1.81Z"/>
    <rect class="cls-2" x="177.28" y="78.82" width="1.88" height="1.88"/>
    <path class="cls-2" d="M182.93,78.82v1.88s-1.23-.59-1.88-.07c0,0-.03-1.81,1.88-1.81Z"/>
    <rect class="cls-2" x="182.93" y="78.82" width="1.88" height="1.88"/>
    <rect class="cls-2" x="184.81" y="78.82" width="1.88" height="1.88"/>
    <path class="cls-2" d="M186.7,80.7v-1.88h1.88v.46c0,.79-.84,1.42-1.88,1.42Z"/>
    <path class="cls-2" d="M193.28,78.82c.52,0,.94.42.94.94s-.42.94-.94.94-.94-.42-.94-.94.42-.94.94-.94Z"/>
    <path class="cls-2" d="M197.99,78.82v1.88s-1.23-.59-1.88-.07c0,0-.03-1.81,1.88-1.81Z"/>
    <rect class="cls-2" x="197.99" y="78.82" width="1.88" height="1.88"/>
    <rect class="cls-2" x="199.87" y="78.82" width="1.88" height="1.88"/>
    <path class="cls-2" d="M211.17,78.82h1.88s-.59,1.23-.07,1.88c0,0-1.81.03-1.81-1.88Z"/>
    <rect class="cls-2" x="214.93" y="78.82" width="1.88" height="1.88"/>
    <rect class="cls-2" x="216.82" y="78.82" width="1.88" height="1.88"/>
    <path class="cls-2" d="M228.11,80.7h-1.88s.59-1.23.07-1.88c0,0,1.81-.03,1.81,1.88Z"/>
    <path class="cls-2" d="M174.46,80.7c.52,0,.94.42.94.94s-.42.94-.94.94-.94-.42-.94-.94.42-.94.94-.94Z"/>
    <rect class="cls-2" x="177.28" y="80.7" width="1.88" height="1.88"/>
    <rect class="cls-2" x="182.93" y="80.7" width="1.88" height="1.88"/>
    <path class="cls-2" d="M197.99,80.7h1.88v1.88h0s-.46,0-.46,0c-.79,0-1.42-.84-1.42-1.88Z"/>
    <path class="cls-2" d="M199.87,82.58v-1.88h1.88v.46c0,.79-.84,1.42-1.88,1.42Z"/>
    <path class="cls-2" d="M207.4,82.58h-1.88s.59-1.23.07-1.88c0,0,1.81-.03,1.81,1.88Z"/>
    <path class="cls-2" d="M211.17,82.58h-1.88s.59-1.23.07-1.88c0,0,1.81-.03,1.81,1.88Z"/>
    <path class="cls-2" d="M214.93,80.7v1.88h-1.88v-.46c0-.79.84-1.42,1.88-1.42Z"/>
    <rect class="cls-2" x="214.93" y="80.7" width="1.88" height="1.88"/>
    <rect class="cls-2" x="216.82" y="80.7" width="1.88" height="1.88"/>
    <path class="cls-2" d="M224.35,80.7v1.88s-1.23-.59-1.88-.07c0,0-.03-1.81,1.88-1.81Z"/>
    <rect class="cls-2" x="224.35" y="80.7" width="1.88" height="1.88"/>
    <rect class="cls-2" x="226.23" y="80.7" width="1.88" height="1.88"/>
    <path class="cls-2" d="M177.28,82.58v1.88h-1.88v-.46c0-.79.84-1.42,1.88-1.42Z"/>
    <path class="cls-2" d="M177.28,84.46v-1.88h1.88v.46c0,.79-.84,1.42-1.88,1.42Z"/>
    <path class="cls-2" d="M182.93,82.58v1.88s-1.23-.59-1.88-.07c0,0-.03-1.81,1.88-1.81Z"/>
    <rect class="cls-2" x="182.93" y="82.58" width="1.88" height="1.88"/>
    <path class="cls-2" d="M184.81,84.46v-1.88s1.23.59,1.88.07c0,0,.03,1.81-1.88,1.81Z"/>
    <path class="cls-2" d="M192.34,84.46h-1.88s.59-1.23.07-1.88c0,0,1.81-.03,1.81,1.88Z"/>
    <path class="cls-2" d="M202.7,82.58c.52,0,.94.42.94.94s-.42.94-.94.94-.94-.42-.94-.94.42-.94.94-.94Z"/>
    <path class="cls-2" d="M205.52,82.58h1.88v1.88h0s-.46,0-.46,0c-.79,0-1.42-.84-1.42-1.88Z"/>
    <rect class="cls-2" x="207.4" y="82.58" width="1.88" height="1.88"/>
    <rect class="cls-2" x="209.29" y="82.58" width="1.88" height="1.88"/>
    <rect class="cls-2" x="211.17" y="82.58" width="1.88" height="1.88"/>
    <rect class="cls-2" x="213.05" y="82.58" width="1.88" height="1.88"/>
    <rect class="cls-2" x="214.93" y="82.58" width="1.88" height="1.88"/>
    <rect class="cls-2" x="216.82" y="82.58" width="1.88" height="1.88"/>
    <path class="cls-2" d="M221.52,82.58c.52,0,.94.42.94.94s-.42.94-.94.94-.94-.42-.94-.94.42-.94.94-.94Z"/>
    <path class="cls-2" d="M226.23,82.58h1.88s-.59,1.23-.07,1.88c0,0-1.81.03-1.81-1.88Z"/>
    <path class="cls-2" d="M175.4,84.46v1.88h-1.88v-.46c0-.79.84-1.42,1.88-1.42Z"/>
    <path class="cls-2" d="M175.4,86.35v-1.88h1.88v.46c0,.79-.84,1.42-1.88,1.42Z"/>
    <path class="cls-2" d="M181.05,86.35h-1.88s.59-1.23.07-1.88c0,0,1.81-.03,1.81,1.88Z"/>
    <path class="cls-2" d="M182.93,84.46h1.88s-.59,1.23-.07,1.88c0,0-1.81.03-1.81-1.88Z"/>
    <path class="cls-2" d="M190.46,84.46h1.88s-.59,1.23-.07,1.88c0,0-1.81.03-1.81-1.88Z"/>
    <path class="cls-2" d="M199.87,86.35h-1.88s.59-1.23.07-1.88c0,0,1.81-.03,1.81,1.88Z"/>
    <path class="cls-2" d="M207.4,84.46h1.88s-.59,1.23-.07,1.88c0,0-1.81.03-1.81-1.88Z"/>
    <path class="cls-2" d="M213.05,84.46h1.88v1.88h0s-.46,0-.46,0c-.79,0-1.42-.84-1.42-1.88Z"/>
    <rect class="cls-2" x="214.93" y="84.46" width="1.88" height="1.88"/>
    <path class="cls-2" d="M216.82,86.35v-1.88h1.88v.46c0,.79-.84,1.42-1.88,1.42Z"/>
    <path class="cls-2" d="M173.52,86.35h1.88s-.59,1.23-.07,1.88c0,0-1.81.03-1.81-1.88Z"/>
    <path class="cls-2" d="M179.17,86.35v1.88s-1.23-.59-1.88-.07c0,0-.03-1.81,1.88-1.81Z"/>
    <path class="cls-2" d="M179.17,88.23v-1.88h1.88v.46c0,.79-.84,1.42-1.88,1.42Z"/>
    <path class="cls-2" d="M186.7,86.35v1.88s-1.23-.59-1.88-.07c0,0-.03-1.81,1.88-1.81Z"/>
    <rect class="cls-2" x="186.7" y="86.35" width="1.88" height="1.88"/>
    <path class="cls-2" d="M190.46,88.23h-1.88v-1.88h0s.46,0,.46,0c.79,0,1.42.84,1.42,1.88Z"/>
    <path class="cls-2" d="M197.99,86.35v1.88s-1.23-.59-1.88-.07c0,0-.03-1.81,1.88-1.81Z"/>
    <path class="cls-2" d="M197.99,88.23v-1.88h1.88v.46c0,.79-.84,1.42-1.88,1.42Z"/>
    <path class="cls-2" d="M203.64,86.35v1.88s-1.23-.59-1.88-.07c0,0-.03-1.81,1.88-1.81Z"/>
    <path class="cls-2" d="M205.52,88.23h-1.88v-1.88h0s.46,0,.46,0c.79,0,1.42.84,1.42,1.88Z"/>
    <path class="cls-2" d="M213.05,88.23h-1.88s.59-1.23.07-1.88c0,0,1.81-.03,1.81,1.88Z"/>
    <rect class="cls-2" x="214.93" y="86.35" width="1.88" height="1.88"/>
    <path class="cls-2" d="M222.47,88.23h-1.88s.59-1.23.07-1.88c0,0,1.81-.03,1.81,1.88Z"/>
    <path class="cls-2" d="M228.11,88.23h-1.88s.59-1.23.07-1.88c0,0,1.81-.03,1.81,1.88Z"/>
    <path class="cls-2" d="M182.93,88.23v1.88s-1.23-.59-1.88-.07c0,0-.03-1.81,1.88-1.81Z"/>
    <path class="cls-2" d="M182.93,90.11v-1.88s1.23.59,1.88.07c0,0,.03,1.81-1.88,1.81Z"/>
    <path class="cls-2" d="M186.7,88.23h1.88v1.88h0s-.46,0-.46,0c-.79,0-1.42-.84-1.42-1.88Z"/>
    <rect class="cls-2" x="188.58" y="88.23" width="1.88" height="1.88"/>
    <path class="cls-2" d="M194.23,90.11h-1.88s.59-1.23.07-1.88c0,0,1.81-.03,1.81,1.88Z"/>
    <rect class="cls-2" x="203.64" y="88.23" width="1.88" height="1.88"/>
    <path class="cls-2" d="M211.17,88.23v1.88h-1.88v-.46c0-.79.84-1.42,1.88-1.42Z"/>
    <rect class="cls-2" x="211.17" y="88.23" width="1.88" height="1.88"/>
    <rect class="cls-2" x="213.05" y="88.23" width="1.88" height="1.88"/>
    <rect class="cls-2" x="214.93" y="88.23" width="1.88" height="1.88"/>
    <path class="cls-2" d="M216.82,90.11v-1.88s1.23.59,1.88.07c0,0,.03,1.81-1.88,1.81Z"/>
    <path class="cls-2" d="M220.58,88.23h1.88v1.88h0s-.46,0-.46,0c-.79,0-1.42-.84-1.42-1.88Z"/>
    <rect class="cls-2" x="222.47" y="88.23" width="1.88" height="1.88"/>
    <rect class="cls-2" x="224.35" y="88.23" width="1.88" height="1.88"/>
    <rect class="cls-2" x="226.23" y="88.23" width="1.88" height="1.88"/>
    <path class="cls-2" d="M175.4,90.11v1.88s-1.23-.59-1.88-.07c0,0-.03-1.81,1.88-1.81Z"/>
    <rect class="cls-2" x="175.4" y="90.11" width="1.88" height="1.88"/>
    <path class="cls-2" d="M179.17,92h-1.88v-1.88h0s.46,0,.46,0c.79,0,1.42.84,1.42,1.88Z"/>
    <path class="cls-2" d="M185.75,90.11c.52,0,.94.42.94.94s-.42.94-.94.94-.94-.42-.94-.94.42-.94.94-.94Z"/>
    <rect class="cls-2" x="188.58" y="90.11" width="1.88" height="1.88"/>
    <path class="cls-2" d="M192.34,90.11h1.88s-.59,1.23-.07,1.88c0,0-1.81.03-1.81-1.88Z"/>
    <path class="cls-2" d="M199.87,90.11v1.88s-1.23-.59-1.88-.07c0,0-.03-1.81,1.88-1.81Z"/>
    <path class="cls-2" d="M201.76,92h-1.88v-1.88h0s.46,0,.46,0c.79,0,1.42.84,1.42,1.88Z"/>
    <rect class="cls-2" x="203.64" y="90.11" width="1.88" height="1.88"/>
    <path class="cls-2" d="M209.29,90.11v1.88h-1.88v-.46c0-.79.84-1.42,1.88-1.42Z"/>
    <rect class="cls-2" x="209.29" y="90.11" width="1.88" height="1.88"/>
    <rect class="cls-2" x="214.93" y="90.11" width="1.88" height="1.88"/>
    <path class="cls-2" d="M219.64,90.11c.52,0,.94.42.94.94s-.42.94-.94.94-.94-.42-.94-.94.42-.94.94-.94Z"/>
    <path class="cls-2" d="M226.23,90.11h1.88s-.59,1.23-.07,1.88c0,0-1.81.03-1.81-1.88Z"/>
    <path class="cls-2" d="M177.28,92h1.88s-.59,1.23-.07,1.88c0,0-1.81.03-1.81-1.88Z"/>
    <path class="cls-2" d="M188.58,92h1.88s-.59,1.23-.07,1.88c0,0-1.81.03-1.81-1.88Z"/>
    <rect class="cls-2" x="199.87" y="92" width="1.88" height="1.88"/>
    <rect class="cls-2" x="201.76" y="92" width="1.88" height="1.88"/>
    <path class="cls-2" d="M203.64,93.88v-1.88h1.88v.46c0,.79-.84,1.42-1.88,1.42Z"/>
    <path class="cls-2" d="M207.4,92h1.88v1.88h0s-.46,0-.46,0c-.79,0-1.42-.84-1.42-1.88Z"/>
    <rect class="cls-2" x="209.29" y="92" width="1.88" height="1.88"/>
    <path class="cls-2" d="M214.93,92v1.88h-1.88v-.46c0-.79.84-1.42,1.88-1.42Z"/>
    <rect class="cls-2" x="214.93" y="92" width="1.88" height="1.88"/>
    <path class="cls-2" d="M218.7,93.88h-1.88v-1.88h0s.46,0,.46,0c.79,0,1.42.84,1.42,1.88Z"/>
    <path class="cls-2" d="M175.4,93.88v1.88s-1.23-.59-1.88-.07c0,0-.03-1.81,1.88-1.81Z"/>
    <path class="cls-2" d="M175.4,95.76v-1.88s1.23.59,1.88.07c0,0,.03,1.81-1.88,1.81Z"/>
    <path class="cls-2" d="M181.05,93.88v1.88s-1.23-.59-1.88-.07c0,0-.03-1.81,1.88-1.81Z"/>
    <path class="cls-2" d="M181.05,95.76v-1.88s1.23.59,1.88.07c0,0,.03,1.81-1.88,1.81Z"/>
    <path class="cls-2" d="M185.75,93.88c.52,0,.94.42.94.94s-.42.94-.94.94-.94-.42-.94-.94.42-.94.94-.94Z"/>
    <path class="cls-2" d="M199.87,93.88v1.88h-1.88v-.46c0-.79.84-1.42,1.88-1.42Z"/>
    <rect class="cls-2" x="199.87" y="93.88" width="1.88" height="1.88"/>
    <path class="cls-2" d="M209.29,93.88h1.88v1.88h0s-.46,0-.46,0c-.79,0-1.42-.84-1.42-1.88Z"/>
    <rect class="cls-2" x="211.17" y="93.88" width="1.88" height="1.88"/>
    <rect class="cls-2" x="213.05" y="93.88" width="1.88" height="1.88"/>
    <rect class="cls-2" x="214.93" y="93.88" width="1.88" height="1.88"/>
    <rect class="cls-2" x="216.82" y="93.88" width="1.88" height="1.88"/>
    <rect class="cls-2" x="218.7" y="93.88" width="1.88" height="1.88"/>
    <path class="cls-2" d="M222.47,95.76h-1.88v-1.88h0s.46,0,.46,0c.79,0,1.42.84,1.42,1.88Z"/>
    <path class="cls-2" d="M225.29,93.88c.52,0,.94.42.94.94s-.42.94-.94.94-.94-.42-.94-.94.42-.94.94-.94Z"/>
    <path class="cls-2" d="M190.46,95.76v1.88h-1.88v-.46c0-.79.84-1.42,1.88-1.42Z"/>
    <rect class="cls-2" x="190.46" y="95.76" width="1.88" height="1.88"/>
    <path class="cls-2" d="M192.34,97.64v-1.88s1.23.59,1.88.07c0,0,.03,1.81-1.88,1.81Z"/>
    <path class="cls-2" d="M197.99,95.76h1.88v1.88h0s-.46,0-.46,0c-.79,0-1.42-.84-1.42-1.88Z"/>
    <path class="cls-2" d="M199.87,97.64v-1.88h1.88v.46c0,.79-.84,1.42-1.88,1.42Z"/>
    <path class="cls-2" d="M209.29,97.64h-1.88s.59-1.23.07-1.88c0,0,1.81-.03,1.81,1.88Z"/>
    <rect class="cls-2" x="211.17" y="95.76" width="1.88" height="1.88"/>
    <rect class="cls-2" x="218.7" y="95.76" width="1.88" height="1.88"/>
    <rect class="cls-2" x="220.58" y="95.76" width="1.88" height="1.88"/>
    <path class="cls-2" d="M222.47,97.64v-1.88s1.23.59,1.88.07c0,0,.03,1.81-1.88,1.81Z"/>
    <path class="cls-2" d="M228.11,97.64h-1.88s.59-1.23.07-1.88c0,0,1.81-.03,1.81,1.88Z"/>
    <path class="cls-2" d="M188.58,97.64h1.88s-.59,1.23-.07,1.88c0,0-1.81.03-1.81-1.88Z"/>
    <path class="cls-2" d="M196.11,99.53h-1.88s.59-1.23.07-1.88c0,0,1.81-.03,1.81,1.88Z"/>
    <path class="cls-2" d="M202.7,97.64c.52,0,.94.42.94.94s-.42.94-.94.94-.94-.42-.94-.94.42-.94.94-.94Z"/>
    <rect class="cls-2" x="207.4" y="97.64" width="1.88" height="1.88"/>
    <rect class="cls-2" x="211.17" y="97.64" width="1.88" height="1.88"/>
    <path class="cls-2" d="M215.88,97.64c.52,0,.94.42.94.94s-.42.94-.94.94-.94-.42-.94-.94.42-.94.94-.94Z"/>
    <rect class="cls-2" x="218.7" y="97.64" width="1.88" height="1.88"/>
    <path class="cls-2" d="M226.23,97.64h1.88s-.59,1.23-.07,1.88c0,0-1.81.03-1.81-1.88Z"/>
    <path class="cls-2" d="M192.34,99.53v1.88s-1.23-.59-1.88-.07c0,0-.03-1.81,1.88-1.81Z"/>
    <rect class="cls-2" x="192.34" y="99.53" width="1.88" height="1.88"/>
    <rect class="cls-2" x="194.23" y="99.53" width="1.88" height="1.88"/>
    <rect class="cls-2" x="196.11" y="99.53" width="1.88" height="1.88"/>
    <path class="cls-2" d="M199.87,101.41h-1.88v-1.88h0s.46,0,.46,0c.79,0,1.42.84,1.42,1.88Z"/>
    <rect class="cls-2" x="207.4" y="99.53" width="1.88" height="1.88"/>
    <rect class="cls-2" x="209.29" y="99.53" width="1.88" height="1.88"/>
    <rect class="cls-2" x="211.17" y="99.53" width="1.88" height="1.88"/>
    <rect class="cls-2" x="218.7" y="99.53" width="1.88" height="1.88"/>
    <path class="cls-2" d="M220.58,101.41v-1.88s1.23.59,1.88.07c0,0,.03,1.81-1.88,1.81Z"/>
    <path class="cls-2" d="M225.29,99.53c.52,0,.94.42.94.94s-.42.94-.94.94-.94-.42-.94-.94.42-.94.94-.94Z"/>
    <rect class="cls-2" x="197.99" y="101.41" width="1.88" height="1.88"/>
    <path class="cls-2" d="M203.64,101.41v1.88s-1.23-.59-1.88-.07c0,0-.03-1.81,1.88-1.81Z"/>
    <path class="cls-2" d="M205.52,103.29h-1.88v-1.88h0s.46,0,.46,0c.79,0,1.42.84,1.42,1.88Z"/>
    <path class="cls-2" d="M207.4,101.41h1.88v1.88h0s-.46,0-.46,0c-.79,0-1.42-.84-1.42-1.88Z"/>
    <rect class="cls-2" x="209.29" y="101.41" width="1.88" height="1.88"/>
    <rect class="cls-2" x="211.17" y="101.41" width="1.88" height="1.88"/>
    <rect class="cls-2" x="213.05" y="101.41" width="1.88" height="1.88"/>
    <rect class="cls-2" x="214.93" y="101.41" width="1.88" height="1.88"/>
    <rect class="cls-2" x="216.82" y="101.41" width="1.88" height="1.88"/>
    <rect class="cls-2" x="218.7" y="101.41" width="1.88" height="1.88"/>
    <rect class="cls-2" x="197.99" y="103.29" width="1.88" height="1.88"/>
    <rect class="cls-2" x="203.64" y="103.29" width="1.88" height="1.88"/>
    <path class="cls-2" d="M205.52,105.17v-1.88s1.23.59,1.88.07c0,0,.03,1.81-1.88,1.81Z"/>
    <path class="cls-2" d="M213.05,103.29h1.88s-.59,1.23-.07,1.88c0,0-1.81.03-1.81-1.88Z"/>
    <rect class="cls-2" x="218.7" y="103.29" width="1.88" height="1.88"/>
    <path class="cls-2" d="M226.23,105.17h-1.88s.59-1.23.07-1.88c0,0,1.81-.03,1.81,1.88Z"/>
    <path class="cls-2" d="M189.52,105.17c.52,0,.94.42.94.94s-.42.94-.94.94-.94-.42-.94-.94.42-.94.94-.94Z"/>
    <path class="cls-2" d="M194.23,105.17v1.88h-1.88v-.46c0-.79.84-1.42,1.88-1.42Z"/>
    <rect class="cls-2" x="194.23" y="105.17" width="1.88" height="1.88"/>
    <rect class="cls-2" x="196.11" y="105.17" width="1.88" height="1.88"/>
    <rect class="cls-2" x="197.99" y="105.17" width="1.88" height="1.88"/>
    <path class="cls-2" d="M201.76,107.06h-1.88v-1.88h0s.46,0,.46,0c.79,0,1.42.84,1.42,1.88Z"/>
    <rect class="cls-2" x="203.64" y="105.17" width="1.88" height="1.88"/>
    <path class="cls-2" d="M213.05,107.06h-1.88s.59-1.23.07-1.88c0,0,1.81-.03,1.81,1.88Z"/>
    <path class="cls-2" d="M218.7,105.17h1.88s-.59,1.23-.07,1.88c0,0-1.81.03-1.81-1.88Z"/>
    <path class="cls-2" d="M224.35,105.17h1.88v1.88h0s-.46,0-.46,0c-.79,0-1.42-.84-1.42-1.88Z"/>
    <path class="cls-2" d="M226.23,107.06v-1.88s1.23.59,1.88.07c0,0,.03,1.81-1.88,1.81Z"/>
    <path class="cls-2" d="M192.34,107.06v1.88h-1.88v-.46c0-.79.84-1.42,1.88-1.42Z"/>
    <rect class="cls-2" x="192.34" y="107.06" width="1.88" height="1.88"/>
    <rect class="cls-2" x="194.23" y="107.06" width="1.88" height="1.88"/>
    <path class="cls-2" d="M196.11,108.94v-1.88h1.88v.46c0,.79-.84,1.42-1.88,1.42Z"/>
    <path class="cls-2" d="M199.87,107.06h1.88v1.88h0s-.46,0-.46,0c-.79,0-1.42-.84-1.42-1.88Z"/>
    <rect class="cls-2" x="201.76" y="107.06" width="1.88" height="1.88"/>
    <rect class="cls-2" x="203.64" y="107.06" width="1.88" height="1.88"/>
    <path class="cls-2" d="M209.29,107.06v1.88h-1.88v-.46c0-.79.84-1.42,1.88-1.42Z"/>
    <rect class="cls-2" x="209.29" y="107.06" width="1.88" height="1.88"/>
    <rect class="cls-2" x="211.17" y="107.06" width="1.88" height="1.88"/>
    <path class="cls-2" d="M216.82,108.94h-1.88s.59-1.23.07-1.88c0,0,1.81-.03,1.81,1.88Z"/>
    <path class="cls-2" d="M221.52,107.06c.52,0,.94.42.94.94s-.42.94-.94.94-.94-.42-.94-.94.42-.94.94-.94Z"/>
    <path class="cls-2" d="M190.46,108.94v1.88s-1.23-.59-1.88-.07c0,0-.03-1.81,1.88-1.81Z"/>
    <path class="cls-2" d="M190.46,110.82v-1.88h1.88v.46c0,.79-.84,1.42-1.88,1.42Z"/>
    <path class="cls-2" d="M194.23,108.94h1.88s-.59,1.23-.07,1.88c0,0-1.81.03-1.81-1.88Z"/>
    <path class="cls-2" d="M198.93,108.94c.52,0,.94.42.94.94s-.42.94-.94.94-.94-.42-.94-.94.42-.94.94-.94Z"/>
    <path class="cls-2" d="M203.64,108.94h1.88v1.88h0s-.46,0-.46,0c-.79,0-1.42-.84-1.42-1.88Z"/>
    <rect class="cls-2" x="205.52" y="108.94" width="1.88" height="1.88"/>
    <path class="cls-2" d="M207.4,110.82v-1.88h1.88v.46c0,.79-.84,1.42-1.88,1.42Z"/>
    <path class="cls-2" d="M211.17,108.94h1.88s-.59,1.23-.07,1.88c0,0-1.81.03-1.81-1.88Z"/>
    <path class="cls-2" d="M214.93,108.94h1.88s-.59,1.23-.07,1.88c0,0-1.81.03-1.81-1.88Z"/>
    <path class="cls-2" d="M219.64,108.94c.52,0,.94.42.94.94s-.42.94-.94.94-.94-.42-.94-.94.42-.94.94-.94Z"/>
    <path class="cls-2" d="M227.17,108.94c.52,0,.94.42.94.94s-.42.94-.94.94-.94-.42-.94-.94.42-.94.94-.94Z"/>
    <g>
      <path class="cls-5" d="M182.2,58.2h-4.18c-.54,0-1.04.17-1.45.45-.32.22-.58.51-.77.85-.19.35-.3.75-.3,1.18v4.28c0,1.36,1.13,2.47,2.52,2.47h2.09s2.09,0,2.09,0c1.39,0,2.52-1.11,2.52-2.47v-4.28c0-1.36-1.13-2.47-2.52-2.47Z"/>
      <path class="cls-2" d="M182.2,56.23h-4.18c-2.04,0-3.76,1.35-4.31,3.19-.06.19-.1.39-.13.59-.03.22-.05.45-.05.68v4.28c0,2.45,2.02,4.45,4.5,4.45h2.09s2.09,0,2.09,0c2.48,0,4.5-2,4.5-4.45v-4.28c0-2.45-2.02-4.45-4.5-4.45ZM184.72,64.95c0,1.36-1.13,2.47-2.52,2.47h-2.09s-2.09,0-2.09,0c-1.39,0-2.52-1.11-2.52-2.47v-4.28c0-.43.11-.83.3-1.18.19-.34.45-.63.77-.85.41-.28.91-.45,1.45-.45h4.18c1.39,0,2.52,1.11,2.52,2.47v4.28Z"/>
    </g>
    <g>
      <path class="cls-5" d="M223.61,58.2h-4.18c-.54,0-1.04.17-1.45.45-.32.22-.58.51-.77.85-.19.35-.3.75-.3,1.18v4.28c0,1.36,1.13,2.47,2.52,2.47h2.09s2.09,0,2.09,0c1.39,0,2.52-1.11,2.52-2.47v-4.28c0-1.36-1.13-2.47-2.52-2.47Z"/>
      <path class="cls-2" d="M223.61,56.23h-4.18c-2.04,0-3.76,1.35-4.31,3.19-.06.19-.1.39-.13.59-.03.22-.05.45-.05.68v4.28c0,2.45,2.02,4.45,4.5,4.45h2.09s2.09,0,2.09,0c2.48,0,4.5-2,4.5-4.45v-4.28c0-2.45-2.02-4.45-4.5-4.45ZM226.14,64.95c0,1.36-1.13,2.47-2.52,2.47h-2.09s-2.09,0-2.09,0c-1.39,0-2.52-1.11-2.52-2.47v-4.28c0-.43.11-.83.3-1.18.19-.34.45-.63.77-.85.41-.28.91-.45,1.45-.45h4.18c1.39,0,2.52,1.11,2.52,2.47v4.28Z"/>
    </g>
    <g>
      <path class="cls-5" d="M182.2,99.62h-4.18c-.54,0-1.04.17-1.45.45-.32.22-.58.51-.77.85-.19.35-.3.75-.3,1.18v4.28c0,1.36,1.13,2.47,2.52,2.47h2.09s2.09,0,2.09,0c1.39,0,2.52-1.11,2.52-2.47v-4.28c0-1.36-1.13-2.47-2.52-2.47Z"/>
      <path class="cls-2" d="M182.2,97.64h-4.18c-2.04,0-3.76,1.35-4.31,3.19-.06.19-.1.39-.13.59-.03.22-.05.45-.05.68v4.28c0,2.45,2.02,4.45,4.5,4.45h2.09s2.09,0,2.09,0c2.48,0,4.5-2,4.5-4.45v-4.28c0-2.45-2.02-4.45-4.5-4.45ZM184.72,106.37c0,1.36-1.13,2.47-2.52,2.47h-2.09s-2.09,0-2.09,0c-1.39,0-2.52-1.11-2.52-2.47v-4.28c0-.43.11-.83.3-1.18.19-.34.45-.63.77-.85.41-.28.91-.45,1.45-.45h4.18c1.39,0,2.52,1.11,2.52,2.47v4.28Z"/>
    </g>
    <path class="cls-2" d="M178.83,65.64c-.85,0-1.55-.68-1.55-1.51v-2.62c0-.26.07-.51.19-.72.11-.21.28-.38.47-.52.25-.17.56-.27.89-.27h2.56c.85,0,1.54.68,1.54,1.51v2.62c0,.83-.69,1.51-1.54,1.51h-2.56Z"/>
    <path class="cls-2" d="M220.24,65.64c-.85,0-1.55-.68-1.55-1.51v-2.62c0-.26.07-.51.19-.72.11-.21.28-.38.47-.52.25-.17.56-.27.89-.27h2.56c.85,0,1.54.68,1.54,1.51v2.62c0,.83-.69,1.51-1.54,1.51h-2.56Z"/>
    <path class="cls-2" d="M178.83,107.06c-.85,0-1.55-.68-1.55-1.51v-2.62c0-.26.07-.51.19-.72.11-.21.28-.38.47-.52.25-.17.56-.27.89-.27h2.56c.85,0,1.54.68,1.54,1.51v2.62c0,.83-.69,1.51-1.54,1.51h-2.56Z"/>
  </g>
  <g>
    <path class="cls-2" d="M228.11,144.44h-2.61c0-.07,0-.13,0-.19,0-1.47,0-2.94,0-4.41,0-.23-.02-.47-.08-.7-.18-.66-.62-1.04-1.3-1.12-.78-.09-1.53.19-1.79,1.1-.07.24-.09.51-.09.76,0,1.45,0,2.89,0,4.34,0,.07,0,.13,0,.21h-2.62v-11.29h2.61v3.85s.04,0,.05,0c.66-.82,1.55-1.16,2.58-1.17.77,0,1.47.19,2.07.69.61.51.93,1.18,1.08,1.95.04.19.06.38.09.57v5.42Z"/>
    <path class="cls-2" d="M190.33,139.39c-.27.63-.52,1.22-.77,1.81-.44,1.03-.87,2.06-1.3,3.1-.04.1-.09.14-.2.14-.74,0-1.48,0-2.22,0-.1,0-.15-.03-.19-.13-1.16-2.75-2.32-5.51-3.48-8.26-.02-.04-.03-.08-.05-.14.06,0,.11,0,.15,0,.87,0,1.75,0,2.62,0,.12,0,.17.05.2.15.59,1.61,1.19,3.22,1.79,4.84.02.05.04.1.07.18.19-.51.37-.99.55-1.47.44-1.19.88-2.38,1.32-3.57.04-.11.09-.14.2-.14.87,0,1.75,0,2.62,0,.11,0,.17.03.21.14.6,1.63,1.21,3.26,1.81,4.89.01.04.03.08.05.14.03-.08.05-.13.07-.18.6-1.61,1.19-3.22,1.79-4.84.05-.13.11-.16.23-.16.86,0,1.72,0,2.57,0,.14,0,.2.04.24.17.59,1.61,1.19,3.22,1.79,4.84.02.05.04.09.07.17.06-.15.11-.27.15-.39.57-1.53,1.14-3.07,1.7-4.61.05-.13.11-.17.24-.16.75,0,1.5,0,2.25,0,.36,0,.73,0,1.09,0,.06,0,.11,0,.19,0v-2.08h2.63v2.07h1.7v2.17h-1.69c0,.07,0,.13,0,.18,0,1.06,0,2.12,0,3.18,0,.06,0,.11,0,.17.01.36.21.57.56.59.32.02.64.01.95.02.06,0,.12,0,.2,0v2.2s-.02.02-.03.02c-.79,0-1.59.07-2.38-.11-1.03-.24-1.69-.93-1.86-1.97-.05-.32-.08-.65-.08-.98,0-1.03,0-2.06,0-3.09v-.19h-1.03v-1.47s-.02,0-.03-.01c-.02.05-.05.09-.07.14-1.02,2.42-2.04,4.84-3.06,7.25-.04.1-.05.18,0,.29.61,1.34,1.21,2.68,1.81,4.02.02.05.05.11.08.18h-.16c-.85,0-1.7,0-2.56,0-.12,0-.17-.03-.21-.14-.53-1.26-1.06-2.53-1.6-3.79-.71-1.68-1.42-3.35-2.13-5.03-.01-.03-.03-.06-.05-.12-.03.06-.05.11-.07.16-.67,1.58-1.33,3.16-2,4.74-.05.11-.1.14-.21.14-.73,0-1.46,0-2.19,0-.13,0-.18-.04-.22-.15-.66-1.57-1.32-3.13-1.98-4.7-.02-.06-.05-.11-.09-.2Z"/>
    <path class="cls-2" d="M182.95,135.33h-3.35c-.02-.11-.04-.22-.07-.32-.15-.54-.61-.93-1.18-.97-.26-.02-.54,0-.79.06-.74.22-.98,1.18-.47,1.75.21.23.47.4.76.51.63.24,1.26.46,1.89.68.6.21,1.19.43,1.74.76.78.47,1.34,1.1,1.54,2.02.38,1.78-.5,3.49-2.17,4.24-.74.33-1.52.46-2.33.47-1.03,0-2.03-.16-2.96-.65-1.25-.66-1.93-1.71-2.05-3.11,0-.05,0-.09,0-.15.05,0,.09-.01.13-.01,1.01,0,2.01,0,3.02,0,.1,0,.15.02.16.13.14.87.67,1.33,1.55,1.31.26,0,.53-.04.76-.14.81-.31.98-1.33.32-1.89-.26-.21-.57-.38-.89-.5-.69-.26-1.41-.47-2.11-.72-.65-.23-1.28-.51-1.81-.96-.66-.55-1.01-1.26-1.09-2.11-.07-.74.02-1.44.36-2.11.46-.9,1.24-1.44,2.17-1.77.9-.31,1.82-.37,2.76-.29.77.06,1.51.24,2.18.62,1.08.61,1.7,1.53,1.86,2.75.02.12.03.24.04.38Z"/>
    <path class="cls-2" d="M218.98,139c-.56,0-1.11,0-1.67,0-.32,0-.65,0-.97,0-.09,0-.14-.02-.18-.11-.24-.57-.67-.85-1.28-.86-.59,0-1.02.25-1.31.76-.16.29-.24.6-.27.92-.05.58-.04,1.16.2,1.71.33.75,1.08,1.09,1.86.83.39-.13.64-.41.8-.78.03-.07.06-.13.16-.13.87,0,1.74,0,2.6,0,.02,0,.04,0,.08.01-.04.15-.08.3-.13.44-.54,1.56-1.63,2.46-3.26,2.71-.86.13-1.71.04-2.52-.29-1.02-.41-1.74-1.13-2.13-2.16-.5-1.3-.5-2.62.06-3.91.56-1.31,1.6-2.04,2.99-2.29.86-.15,1.71-.11,2.53.19,1.32.48,2.08,1.45,2.42,2.79.01.04.02.08.03.12,0,0,0,.01,0,.03Z"/>
  </g>
</svg>