<?xml version="1.0" encoding="UTF-8"?>
<svg id="Layer_1" data-name="Layer 1" xmlns="http://www.w3.org/2000/svg" viewBox="0 0 71.53 15.23">
  <defs>
    <style>
      .cls-1, .cls-2 {
        fill: #fff;
      }

      .cls-2 {
        font-family: Poppins-SemiBold, Poppins;
        font-size: 5.88px;
        font-weight: 600;
      }
    </style>
  </defs>
  <g>
    <text class="cls-2" transform="translate(15.61 7.51)"><tspan x="0" y="0">swytch.graphics</tspan></text>
    <g>
      <path class="cls-1" d="M8.38,7.05c-.09-.68-.09-1.35,0-2.03h2.93c.08.42.11,1.31,0,2.03h-2.93Z"/>
      <path class="cls-1" d="M8.47,4.5c.12-.54.29-1.05.6-1.5.08-.12.18-.23.29-.33.14-.13.3-.21.49-.21.19,0,.35.08.48.21.12.11.23.23.32.37.3.44.46.94.58,1.46h-2.76Z"/>
      <path class="cls-1" d="M11.23,7.57c-.1.46-.24.9-.48,1.31-.1.17-.22.32-.35.46-.05.07-.13.12-.2.16-.24.15-.48.15-.71-.01-.13-.09-.24-.2-.34-.32-.37-.47-.54-1.02-.68-1.6h2.76Z"/>
      <path class="cls-1" d="M7.85,5.01c-.02.35-.05.68-.05,1.02,0,.34.03.67.05,1.02h-.07c-.52,0-1.04,0-1.56,0-.06,0-.08-.01-.1-.07-.16-.64-.16-1.27,0-1.91.01-.05.03-.07.08-.07.54,0,1.07,0,1.61,0,.01,0,.03,0,.04,0Z"/>
      <path class="cls-1" d="M11.83,5.02s.05,0,.08,0c.52,0,1.04,0,1.57,0,.05,0,.08.01.09.07.16.64.16,1.28,0,1.92-.01.04-.02.06-.07.06-.54,0-1.08,0-1.61,0-.01,0-.03,0-.05,0,.08-.68.09-1.36,0-2.04Z"/>
      <path class="cls-1" d="M13.35,4.5h-1.6c-.18-.81-.43-1.58-1.04-2.19.34.01,1.14.4,1.58.77.46.39.97,1.06,1.06,1.42Z"/>
      <path class="cls-1" d="M10.72,9.77c.11-.14.23-.27.34-.41.32-.46.5-.97.64-1.51.02-.07.03-.15.05-.22,0-.02.03-.05.05-.05.52,0,1.04,0,1.57,0-.21.47-.49.87-.85,1.22-.51.49-1.11.82-1.8.98Z"/>
      <path class="cls-1" d="M6.33,4.5c.55-1.16,1.43-1.89,2.67-2.21-.1.11-.19.21-.27.32-.33.43-.52.92-.66,1.43-.04.13-.06.27-.1.4,0,.02-.03.06-.05.06-.52,0-1.04,0-1.58,0Z"/>
      <path class="cls-1" d="M8.99,9.76c-1.23-.31-2.11-1.03-2.66-2.19.04,0,.06,0,.08,0,.49,0,.97,0,1.46,0,.06,0,.08.02.09.08.12.56.29,1.11.6,1.59.11.17.26.32.39.49.01.01.02.03.04.04Z"/>
    </g>
    <g>
      <path class="cls-1" d="M66.1,13.64l-.16-5.46c-.01-.38.41-.62.73-.42l4.63,2.89c.31.19.3.64-.01.82l-4.47,2.57c-.31.18-.71-.04-.72-.4Z"/>
      <rect class="cls-1" x="68.65" y="11.93" width="1.83" height="3.41" rx=".92" ry=".92" transform="translate(2.45 36.47) rotate(-29.88)"/>
    </g>
  </g>
  <path class="cls-1" d="M65.13,10.75c-.71.36-1.51.57-2.35.57H6.03c-2.91,0-5.28-2.37-5.28-5.28S3.12.75,6.03.75h56.75c2.91,0,5.28,2.37,5.28,5.28,0,.49-.09.96-.22,1.41l.68.43c.19-.58.29-1.2.29-1.84,0-3.33-2.71-6.03-6.03-6.03H6.03C2.71,0,0,2.71,0,6.03s2.71,6.03,6.03,6.03h56.75c.85,0,1.65-.18,2.38-.5l-.02-.82Z"/>
</svg>