<?xml version="1.0" encoding="UTF-8"?>
<svg id="Layer_1" data-name="Layer 1" xmlns="http://www.w3.org/2000/svg" viewBox="0 0 71.53 15.23">
  <defs>
    <style>
      .cls-1 {
        fill: #fff;
      }
    </style>
  </defs>
  <g>
    <g>
      <path class="cls-1" d="M16.55,7.42c-.21-.1-.38-.23-.5-.39-.12-.16-.19-.35-.2-.55h.83c.02.13.08.23.19.31.11.08.24.12.4.12s.28-.03.37-.09c.09-.06.13-.14.13-.24,0-.11-.05-.19-.16-.24-.11-.05-.28-.11-.51-.17-.24-.06-.44-.12-.6-.18-.15-.06-.29-.16-.4-.29-.11-.13-.17-.3-.17-.52,0-.18.05-.34.16-.49.1-.15.25-.27.45-.35.19-.09.42-.13.69-.13.39,0,.7.1.93.29.23.19.36.46.38.79h-.79c-.01-.13-.07-.23-.16-.31s-.22-.11-.38-.11c-.15,0-.26.03-.34.08-.08.05-.12.13-.12.23,0,.11.05.19.17.25.11.06.28.11.51.17.23.06.43.12.58.18.15.06.29.16.4.29.11.13.17.3.17.52,0,.19-.05.36-.16.51-.1.15-.25.26-.45.35-.19.08-.42.13-.68.13s-.51-.05-.72-.14Z"/>
      <path class="cls-1" d="M23.74,4.25l-.95,3.26h-.89l-.59-2.28-.59,2.28h-.89l-.96-3.26h.83l.58,2.48.62-2.48h.87l.61,2.48.58-2.48h.79Z"/>
      <path class="cls-1" d="M27.3,4.25l-2.02,4.8h-.88l.71-1.62-1.31-3.18h.92l.84,2.28.85-2.28h.88Z"/>
      <path class="cls-1" d="M28.7,4.93v1.58c0,.11.03.19.08.24.05.05.14.07.27.07h.38v.69h-.52c-.69,0-1.04-.34-1.04-1.01v-1.57h-.39v-.68h.39v-.8h.83v.8h.73v.68h-.73Z"/>
      <path class="cls-1" d="M30.02,5c.14-.25.33-.45.57-.59.24-.14.52-.21.83-.21.4,0,.74.1,1,.3.26.2.44.49.53.85h-.89c-.05-.14-.13-.25-.24-.33-.11-.08-.25-.12-.42-.12-.24,0-.42.08-.56.26-.14.17-.21.41-.21.73s.07.55.21.72c.14.17.32.26.56.26.33,0,.55-.15.65-.45h.89c-.09.35-.27.63-.54.84s-.6.31-1,.31c-.31,0-.59-.07-.83-.21-.24-.14-.43-.33-.57-.59-.14-.25-.21-.55-.21-.88s.07-.63.21-.88Z"/>
      <path class="cls-1" d="M36.05,4.37c.19.11.34.27.45.48.11.21.16.46.16.75v1.91h-.82v-1.8c0-.26-.06-.46-.19-.6-.13-.14-.31-.21-.53-.21s-.41.07-.54.21c-.13.14-.2.34-.2.6v1.8h-.82V3.16h.82v1.5c.11-.14.25-.25.42-.33.18-.08.37-.12.59-.12.25,0,.47.05.66.16Z"/>
      <path class="cls-1" d="M37.44,7.42c-.1-.09-.14-.21-.14-.34s.05-.25.14-.34c.1-.09.22-.14.37-.14s.26.05.36.14c.09.09.14.21.14.34s-.05.25-.14.34c-.09.09-.21.14-.36.14s-.27-.05-.37-.14Z"/>
      <path class="cls-1" d="M40.89,4.35c.18.1.33.22.44.37v-.46h.83v3.28c0,.3-.06.57-.18.81s-.3.42-.55.56c-.24.14-.54.21-.88.21-.46,0-.84-.11-1.14-.32-.3-.22-.46-.51-.5-.88h.82c.04.15.14.27.28.36.14.09.32.13.52.13.24,0,.43-.07.58-.21.15-.14.22-.36.22-.65v-.51c-.11.15-.25.28-.44.38-.19.1-.4.15-.64.15-.27,0-.53-.07-.75-.21-.23-.14-.41-.34-.54-.6-.13-.26-.2-.55-.2-.88s.07-.62.2-.88c.13-.25.31-.45.54-.59.23-.14.48-.21.76-.21.24,0,.46.05.64.14ZM41.21,5.37c-.08-.14-.18-.25-.32-.33-.13-.08-.28-.11-.43-.11s-.29.04-.42.11c-.13.08-.23.18-.31.33-.08.14-.12.31-.12.51s.04.37.12.51c.08.15.19.26.32.34.13.08.27.12.42.12s.3-.04.43-.12c.13-.08.24-.19.32-.33.08-.14.12-.31.12-.51s-.04-.37-.12-.51Z"/>
      <path class="cls-1" d="M44.2,4.35c.17-.1.37-.15.58-.15v.86h-.22c-.26,0-.45.06-.58.18s-.2.33-.2.63v1.62h-.82v-3.26h.82v.51c.11-.17.24-.31.42-.41Z"/>
      <path class="cls-1" d="M45.32,5c.13-.25.31-.45.54-.59.23-.14.48-.21.76-.21.24,0,.46.05.64.15.18.1.33.22.44.37v-.46h.83v3.26h-.83v-.48c-.11.15-.25.28-.44.38-.19.1-.4.15-.64.15-.27,0-.52-.07-.75-.21-.23-.14-.4-.34-.54-.6-.13-.26-.2-.55-.2-.88s.07-.62.2-.88ZM47.57,5.37c-.08-.14-.18-.25-.32-.33-.13-.08-.28-.11-.43-.11s-.29.04-.42.11c-.13.08-.23.18-.31.33-.08.14-.12.31-.12.51s.04.37.12.51c.08.15.19.26.32.34.13.08.27.12.42.12s.3-.04.43-.12c.13-.08.24-.19.32-.33.08-.14.12-.31.12-.51s-.04-.37-.12-.51Z"/>
      <path class="cls-1" d="M50.58,4.35c.19-.1.4-.15.64-.15.28,0,.53.07.76.21.23.14.4.33.54.58.13.25.2.55.2.88s-.07.63-.2.88c-.13.26-.31.46-.54.6-.23.14-.48.21-.76.21-.24,0-.45-.05-.63-.15-.18-.1-.33-.22-.44-.37v2.02h-.82v-4.81h.82v.47c.11-.15.25-.27.44-.37ZM51.75,5.36c-.08-.14-.19-.25-.32-.33-.13-.07-.27-.11-.43-.11s-.29.04-.42.11c-.13.08-.24.19-.32.33-.08.15-.12.32-.12.51s.04.37.12.51c.08.15.19.26.32.33.13.08.27.12.42.12s.29-.04.43-.12c.13-.08.24-.19.32-.33.08-.14.12-.32.12-.52s-.04-.37-.12-.51Z"/>
      <path class="cls-1" d="M55.8,4.37c.19.11.34.27.45.48.11.21.16.46.16.75v1.91h-.82v-1.8c0-.26-.06-.46-.19-.6-.13-.14-.31-.21-.53-.21s-.41.07-.54.21c-.13.14-.2.34-.2.6v1.8h-.82V3.16h.82v1.5c.11-.14.25-.25.42-.33.18-.08.37-.12.59-.12.25,0,.47.05.66.16Z"/>
      <path class="cls-1" d="M57.25,3.73c-.1-.09-.14-.21-.14-.34s.05-.25.14-.34c.1-.09.22-.14.36-.14s.27.05.36.14c.1.09.14.21.14.34s-.05.25-.14.34c-.1.09-.22.14-.36.14s-.27-.05-.36-.14ZM58.02,4.25v3.26h-.82v-3.26h.82Z"/>
      <path class="cls-1" d="M58.83,5c.14-.25.33-.45.57-.59.24-.14.52-.21.83-.21.4,0,.74.1,1,.3.26.2.44.49.53.85h-.89c-.05-.14-.13-.25-.24-.33-.11-.08-.25-.12-.42-.12-.23,0-.42.08-.56.26-.14.17-.21.41-.21.73s.07.55.21.72c.14.17.32.26.56.26.33,0,.55-.15.65-.45h.89c-.09.35-.27.63-.54.84s-.6.31-1,.31c-.31,0-.59-.07-.83-.21-.24-.14-.43-.33-.57-.59-.14-.25-.21-.55-.21-.88s.07-.63.21-.88Z"/>
      <path class="cls-1" d="M62.9,7.42c-.21-.1-.38-.23-.5-.39-.12-.16-.19-.35-.2-.55h.83c.02.13.08.23.18.31.11.08.24.12.4.12s.28-.03.37-.09c.09-.06.13-.14.13-.24,0-.11-.05-.19-.16-.24s-.28-.11-.51-.17c-.24-.06-.44-.12-.6-.18-.16-.06-.29-.16-.4-.29-.11-.13-.17-.3-.17-.52,0-.18.05-.34.16-.49.1-.15.25-.27.45-.35.19-.09.42-.13.69-.13.39,0,.7.1.93.29.23.19.36.46.38.79h-.79c-.01-.13-.07-.23-.16-.31s-.22-.11-.38-.11c-.15,0-.26.03-.34.08-.08.05-.12.13-.12.23,0,.11.05.19.16.25.11.06.28.11.51.17.24.06.43.12.58.18.15.06.29.16.4.29.11.13.17.3.17.52,0,.19-.05.36-.16.51-.1.15-.25.26-.45.35-.19.08-.42.13-.68.13s-.51-.05-.72-.14Z"/>
    </g>
    <g>
      <path class="cls-1" d="M8.38,7.05c-.09-.68-.09-1.35,0-2.03h2.93c.08.42.11,1.31,0,2.03h-2.93Z"/>
      <path class="cls-1" d="M8.47,4.5c.12-.54.29-1.05.6-1.5.08-.12.18-.23.29-.33.14-.13.3-.21.49-.21.19,0,.35.08.48.21.12.11.23.23.32.37.3.44.46.94.58,1.46h-2.76Z"/>
      <path class="cls-1" d="M11.23,7.57c-.1.46-.24.9-.48,1.31-.1.17-.22.32-.35.46-.05.07-.13.12-.2.16-.24.15-.48.15-.71-.01-.13-.09-.24-.2-.34-.32-.37-.47-.54-1.02-.68-1.6h2.76Z"/>
      <path class="cls-1" d="M7.85,5.01c-.02.35-.05.68-.05,1.02,0,.34.03.67.05,1.02h-.07c-.52,0-1.04,0-1.56,0-.06,0-.08-.01-.1-.07-.16-.64-.16-1.27,0-1.91.01-.05.03-.07.08-.07.54,0,1.07,0,1.61,0,.01,0,.03,0,.04,0Z"/>
      <path class="cls-1" d="M11.83,5.02s.05,0,.08,0c.52,0,1.04,0,1.57,0,.05,0,.08.01.09.07.16.64.16,1.28,0,1.92-.01.04-.02.06-.07.06-.54,0-1.08,0-1.61,0-.01,0-.03,0-.05,0,.08-.68.09-1.36,0-2.04Z"/>
      <path class="cls-1" d="M13.35,4.5h-1.6c-.18-.81-.43-1.58-1.04-2.19.34.01,1.14.4,1.58.77.46.39.97,1.06,1.06,1.42Z"/>
      <path class="cls-1" d="M10.72,9.77c.11-.14.23-.27.34-.41.32-.46.5-.97.64-1.51.02-.07.03-.15.05-.22,0-.02.03-.05.05-.05.52,0,1.04,0,1.57,0-.21.47-.49.87-.85,1.22-.51.49-1.11.82-1.8.98Z"/>
      <path class="cls-1" d="M6.33,4.5c.55-1.16,1.43-1.89,2.67-2.21-.1.11-.19.21-.27.32-.33.43-.52.92-.66,1.43-.04.13-.06.27-.1.4,0,.02-.03.06-.05.06-.52,0-1.04,0-1.58,0Z"/>
      <path class="cls-1" d="M8.99,9.76c-1.23-.31-2.11-1.03-2.66-2.19.04,0,.06,0,.08,0,.49,0,.97,0,1.46,0,.06,0,.08.02.09.08.12.56.29,1.11.6,1.59.11.17.26.32.39.49.01.01.02.03.04.04Z"/>
    </g>
    <g>
      <path class="cls-1" d="M66.1,13.64l-.16-5.46c-.01-.38.41-.62.73-.42l4.63,2.89c.31.19.3.64-.01.82l-4.47,2.57c-.31.18-.71-.04-.72-.4Z"/>
      <rect class="cls-1" x="68.65" y="11.93" width="1.83" height="3.41" rx=".92" ry=".92" transform="translate(2.45 36.47) rotate(-29.88)"/>
    </g>
  </g>
  <path class="cls-1" d="M65.13,10.75c-.71.36-1.51.57-2.35.57H6.03c-2.91,0-5.28-2.37-5.28-5.28S3.12.75,6.03.75h56.75c2.91,0,5.28,2.37,5.28,5.28,0,.49-.09.96-.22,1.41l.68.43c.19-.58.29-1.2.29-1.84,0-3.33-2.71-6.03-6.03-6.03H6.03C2.71,0,0,2.71,0,6.03s2.71,6.03,6.03,6.03h56.75c.85,0,1.65-.18,2.38-.5l-.02-.82Z"/>
</svg>