<?xml version="1.0" encoding="UTF-8"?>
<svg id="Layer_1" data-name="Layer 1" xmlns="http://www.w3.org/2000/svg" viewBox="0 0 383.3 146.55">
  <defs>
    <style>
      .cls-1 {
        fill: #fff;
      }
    </style>
  </defs>
  <g>
    <path class="cls-1" d="M249.67,73.91l-8.4-5.4c-1.74,3.24-4.32,5.64-9.6,5.64-6.24,0-10.02-5.04-10.02-11.46s3.66-11.4,9.66-11.4c5.16,0,7.68,2.46,9.24,4.86l8.22-5.58c-3.42-5.04-8.82-8.76-17.64-8.76-10.92,0-20.64,8.58-20.64,20.88s9.78,20.94,21.24,20.94c8.28,0,13.92-2.94,17.94-9.72Z"/>
    <polygon class="cls-1" points="278.18 41.77 278.18 57.87 263.96 57.87 263.96 41.77 253.04 41.77 253.04 83.63 263.96 83.63 263.96 67.44 278.18 67.44 278.18 83.63 289.1 83.63 289.1 41.77 278.18 41.77"/>
    <path class="cls-1" d="M360.45,83.63h11.64l-7.93-13.36c1.28-.7,2.44-1.59,3.45-2.63,2.66-2.73,4.33-6.54,4.32-10.7,0-4.16-1.66-7.98-4.32-10.7-2.66-2.73-6.38-4.44-10.44-4.44h-17.4v41.83h10.92v-11.55h2.9l6.86,11.55ZM350.69,51.16h4.82c1.57,0,2.95.64,3.98,1.69,1.03,1.06,1.65,2.48,1.65,4.09,0,1.61-.62,3.03-1.65,4.09-1.03,1.05-2.41,1.69-3.98,1.69h-4.82v-11.56Z"/>
    <polygon class="cls-1" points="170.34 41.77 170.34 83.63 180.57 83.63 180.57 62.7 207.06 83.63 207.06 41.77 196.76 41.77 196.76 62.66 170.34 41.77"/>
    <polygon class="cls-1" points="143.53 63.53 155.2 83.63 167.82 83.63 149.84 52.65 143.53 41.77 137.22 52.65 119.23 83.63 131.86 83.63 143.53 63.53"/>
    <path class="cls-1" d="M314.66,74.15c-6.84,0-10.74-5.04-10.74-11.46s3.9-11.4,10.74-11.4,10.74,4.98,10.74,11.4-3.9,11.46-10.74,11.46ZM314.66,83.63c11.76,0,21.9-8.64,21.9-20.94s-10.14-20.88-21.9-20.88-21.9,8.58-21.9,20.88,10.14,20.94,21.9,20.94Z"/>
  </g>
  <g>
    <path class="cls-1" d="M200.02,110h4.94l-3.36-5.66c.54-.3,1.03-.67,1.46-1.11,1.13-1.16,1.83-2.77,1.83-4.54,0-1.77-.7-3.38-1.83-4.54-1.13-1.16-2.7-1.88-4.43-1.88h-7.38v17.73h4.63v-4.9h1.23l2.91,4.9ZM195.88,96.23h1.92c.67,0,1.25.27,1.69.72.44.45.7,1.05.7,1.73,0,.68-.26,1.28-.7,1.73-.44.45-1.02.72-1.69.72h-1.92v-4.9Z"/>
    <path class="cls-1" d="M180.01,92.32h-6.71v17.68h4.73v-3.82h1.98c4.76,0,7.44-2.99,7.44-6.92s-2.68-6.94-7.44-6.94ZM179.77,102.17h-1.74v-5.85h1.74c2.13,0,2.91,1.22,2.91,2.94s-.78,2.91-2.91,2.91Z"/>
    <rect class="cls-1" x="209.87" y="92.32" width="4.73" height="17.68"/>
    <path class="cls-1" d="M236.03,109.85c.29.23.36.16.36-.05v-17.94h-4.45v8.87l-11.1-9.15c-.29-.23-.36-.1-.36.05v17.92h4.45v-8.81l11.1,9.13Z"/>
    <polygon class="cls-1" points="245.11 110 249.84 110 249.84 96.3 254.52 96.3 254.52 92.32 240.43 92.32 240.43 96.3 245.11 96.3 245.11 110"/>
    <polygon class="cls-1" points="271.33 110 283.58 110 283.58 106.02 276.06 106.02 276.06 92.32 271.33 92.32 271.33 110"/>
    <polygon class="cls-1" points="288.8 110 293.54 110 293.54 96.3 298.22 96.3 298.22 92.32 284.12 92.32 284.12 96.3 288.8 96.3 288.8 110"/>
    <path class="cls-1" d="M309.09,92.32h-6.84v17.68h6.84c5.1,0,8.94-3.35,8.94-8.84s-3.85-8.84-8.94-8.84ZM308.57,105.99h-1.59v-9.67h1.59c2.86,0,4.63,1.9,4.63,4.84s-1.77,4.84-4.63,4.84Z"/>
  </g>
  <g>
    <polygon class="cls-1" points="11.2 97.51 21.74 115.73 32.42 97.24 32.42 97.24 32.42 97.24 32.5 97.11 60.23 49.07 49.7 30.83 11.2 97.51"/>
    <polygon class="cls-1" points="50.84 30.17 89.38 96.92 110.44 96.92 71.9 30.17 50.84 30.17"/>
    <polygon class="cls-1" points="33.44 98.1 22.89 116.38 37.41 116.38 59.96 116.38 49.27 98.1 33.44 98.1"/>
    <polygon class="cls-1" points="73.57 98.23 84.18 116.38 99.97 116.38 110.44 98.23 73.57 98.23"/>
    <path class="cls-1" d="M61,79.33l21.66,37.05h-21.18c-3.59-6.15-9.9-16.94-11.05-18.94l.39-.66h-.02l10.2-17.45Z"/>
  </g>
</svg>